<?xml version="1.0" encoding="UTF-8" standalone="no"?>
<!DOCTYPE svg PUBLIC "-//W3C//DTD SVG 1.1//EN" "http://www.w3.org/Graphics/SVG/1.1/DTD/svg11.dtd">
<svg width="100%" height="100%" viewBox="0 0 36 36" version="1.1" xmlns="http://www.w3.org/2000/svg" xmlns:xlink="http://www.w3.org/1999/xlink" xml:space="preserve" xmlns:serif="http://www.serif.com/" style="fill-rule:evenodd;clip-rule:evenodd;stroke-linejoin:round;stroke-miterlimit:2;">
    <g id="Spotify" transform="matrix(1.125,0,0,1.125,0,0)">
        <rect x="0" y="0" width="32" height="32" style="fill:none;"/>
        <g id="icons8-spotify.svg" transform="matrix(0.82963,0,0,0.82963,16,16)">
            <g transform="matrix(1,0,0,1,-15,-15)">
                <g transform="matrix(1.16667,0,0,1.16667,-2.5,-2.5)">
                    <path d="M15,3C8.4,3 3,8.4 3,15C3,21.6 8.4,27 15,27C21.6,27 27,21.6 27,15C27,8.4 21.6,3 15,3ZM19.731,21C19.511,21 19.401,20.89 19.181,20.78C17.531,19.789 15.441,19.24 13.241,19.24C12.031,19.24 10.711,19.46 9.611,19.68C9.391,19.68 9.171,19.79 9.061,19.79C8.621,19.79 8.291,19.46 8.291,19.02C8.291,18.58 8.511,18.25 8.951,18.25C10.381,17.92 11.812,17.7 13.352,17.7C15.882,17.7 18.192,18.36 20.172,19.46C20.392,19.68 20.612,19.79 20.612,20.23C20.39,20.78 20.06,21 19.731,21ZM20.94,17.921C20.72,17.921 20.5,17.811 20.28,17.701C18.41,16.491 15.769,15.831 12.91,15.831C11.48,15.831 10.159,16.051 9.17,16.271C8.95,16.381 8.84,16.381 8.62,16.381C8.07,16.381 7.739,15.941 7.739,15.5C7.739,14.95 7.959,14.73 8.509,14.509C9.829,14.179 11.15,13.849 13.02,13.849C16.1,13.849 18.96,14.619 21.381,16.049C21.711,16.269 21.931,16.599 21.931,16.93C21.82,17.48 21.491,17.921 20.94,17.921ZM22.37,14.4C22.15,14.4 22.04,14.29 21.71,14.18C19.51,12.97 16.32,12.2 13.24,12.2C11.7,12.2 10.05,12.42 8.619,12.75C8.399,12.75 8.289,12.86 7.959,12.86C7.299,12.971 6.859,12.42 6.859,11.761C6.859,11.102 7.189,10.77 7.629,10.661C9.39,10.22 11.26,10 13.24,10C16.65,10 20.17,10.77 22.921,12.2C23.251,12.42 23.581,12.75 23.581,13.3C23.471,13.96 23.03,14.4 22.37,14.4Z" style="fill:white;fill-rule:nonzero;"/>
                </g>
            </g>
        </g>
    </g>
</svg>
