<?xml version="1.0" encoding="UTF-8" standalone="no"?>
<!DOCTYPE svg PUBLIC "-//W3C//DTD SVG 1.1//EN" "http://www.w3.org/Graphics/SVG/1.1/DTD/svg11.dtd">
<svg width="100%" height="100%" viewBox="0 0 36 36" version="1.1" xmlns="http://www.w3.org/2000/svg" xmlns:xlink="http://www.w3.org/1999/xlink" xml:space="preserve" xmlns:serif="http://www.serif.com/" style="fill-rule:evenodd;clip-rule:evenodd;stroke-linejoin:round;stroke-miterlimit:2;">
    <g transform="matrix(1,0,0,1,-135,0)">
        <g id="Apple-Music" serif:id="Apple Music" transform="matrix(1.125,0,0,1.125,135,0)">
            <rect x="0" y="0" width="32" height="32" style="fill:none;"/>
            <g id="icons8-music.svg" transform="matrix(0.462222,0,0,0.462222,16,16)">
                <g transform="matrix(1,0,0,1,-25,-25)">
                    <g transform="matrix(1.09524,0,0,1.09524,-2.38095,-2.38095)">
                        <path d="M37,4L13,4C8.038,4 4,8.037 4,13L4,37C4,41.963 8.038,46 13,46L37,46C41.962,46 46,41.963 46,37L46,13C46,8.037 41.962,4 37,4ZM35,12.5L35,31.021L34.998,31.021C34.986,33.768 32.749,36 30,36L29.5,36C28.513,36 27.567,35.58 26.904,34.848C26.242,34.117 25.919,33.13 26.017,32.143C26.195,30.38 27.787,29 29.643,29L31,29C32.103,29 33,28.103 33,27L33,17.205L21,19.455L21,34C21,36.757 18.757,39 16,39L15.5,39C14.513,39 13.567,38.58 12.904,37.848C12.242,37.117 11.919,36.13 12.017,35.143C12.195,33.38 13.787,32 15.643,32L17,32C18.103,32 19,31.103 19,30L19,15.353C19,14.39 19.687,13.563 20.633,13.387L33.224,11.027C33.663,10.944 34.115,11.06 34.458,11.346C34.803,11.632 35,12.053 35,12.5Z" style="fill:white;fill-rule:nonzero;"/>
                    </g>
                </g>
            </g>
        </g>
    </g>
</svg>
