<?xml version="1.0" encoding="UTF-8" standalone="no"?>
<!DOCTYPE svg PUBLIC "-//W3C//DTD SVG 1.1//EN" "http://www.w3.org/Graphics/SVG/1.1/DTD/svg11.dtd">
<svg width="100%" height="100%" viewBox="0 0 36 36" version="1.1" xmlns="http://www.w3.org/2000/svg" xmlns:xlink="http://www.w3.org/1999/xlink" xml:space="preserve" xmlns:serif="http://www.serif.com/" style="fill-rule:evenodd;clip-rule:evenodd;stroke-linejoin:round;stroke-miterlimit:2;">
    <g transform="matrix(1,0,0,1,-45,0)">
        <g id="Deezer" transform="matrix(1.125,0,0,1.125,45,0)">
            <rect x="0" y="0" width="32" height="32" style="fill:none;"/>
            <g id="icons8-deezer.svg" transform="matrix(0.604444,0,0,0.604444,16,16)">
                <g transform="matrix(1,0,0,1,-25,-25)">
                    <g transform="matrix(1.04545,0,0,1.04545,-1.13636,-1.15909)">
                        <path d="M39,14L39,16L47,16L47,14L39,14ZM21,17L21,19L29,19L29,17L21,17ZM39,17L39,19L47,19L47,17L39,17ZM21,20L21,22L29,22L29,20L21,20ZM39,20L39,22L47,22L47,20L39,20ZM3,23L3,25L11,25L11,23L3,23ZM21,23L21,25L29,25L29,23L21,23ZM30,23L30,25L38,25L38,23L30,23ZM39,23L39,25L47,25L47,23L39,23ZM3,26L3,28L11,28L11,26L3,26ZM21,26L21,28L29,28L29,26L21,26ZM30,26L30,28L38,28L38,26L30,26ZM39,26L39,28L47,28L47,26L39,26ZM3,29L3,31L11,31L11,29L3,29ZM12,29L12,31L20,31L20,29L12,29ZM21,29L21,31L29,31L29,29L21,29ZM30,29L30,31L38,31L38,29L30,29ZM39,29L39,31L47,31L47,29L39,29ZM3,32L3,34L11,34L11,32L3,32ZM12,32L12,34L20,34L20,32L12,32ZM21,32L21,34L29,34L29,32L21,32ZM30,32L30,34L38,34L38,32L30,32ZM39,32L39,34L47,34L47,32L39,32ZM3,35L3,37L11,37L11,35L3,35ZM12,35L12,37L20,37L20,35L12,35ZM21,35L21,37L29,37L29,35L21,35ZM30,35L30,37L38,37L38,35L30,35ZM39,35L39,37L47,37L47,35L39,35Z" style="fill:white;fill-rule:nonzero;"/>
                    </g>
                </g>
            </g>
        </g>
    </g>
</svg>
