<?xml version="1.0" encoding="UTF-8" standalone="no"?>
<!DOCTYPE svg PUBLIC "-//W3C//DTD SVG 1.1//EN" "http://www.w3.org/Graphics/SVG/1.1/DTD/svg11.dtd">
<svg width="100%" height="100%" viewBox="0 0 36 36" version="1.1" xmlns="http://www.w3.org/2000/svg" xmlns:xlink="http://www.w3.org/1999/xlink" xml:space="preserve" xmlns:serif="http://www.serif.com/" style="fill-rule:evenodd;clip-rule:evenodd;stroke-linejoin:round;stroke-miterlimit:2;">
    <g transform="matrix(1,0,0,1,-90,0)">
        <g id="YouTube" transform="matrix(1.125,0,0,1.125,90,0)">
            <rect x="0" y="0" width="32" height="32" style="fill:none;"/>
            <g id="icons8-youtube.svg" transform="matrix(0.533333,0,0,0.533333,16,16)">
                <g transform="matrix(1,0,0,1,-25,-25)">
                    <g transform="matrix(1.06725,0,0,1.06725,-1.65096,-1.68117)">
                        <path d="M44.898,14.5C44.5,12.301 42.602,10.699 40.398,10.199C37.102,9.5 31,9 24.398,9C17.801,9 11.602,9.5 8.301,10.199C6.102,10.699 4.199,12.199 3.801,14.5C3.398,17 3,20.5 3,25C3,29.5 3.398,33 3.898,35.5C4.301,37.699 6.199,39.301 8.398,39.801C11.898,40.5 17.898,41 24.5,41C31.102,41 37.102,40.5 40.602,39.801C42.801,39.301 44.699,37.801 45.102,35.5C45.5,33 46,29.398 46.102,25C45.898,20.5 45.398,17 44.898,14.5ZM19,32L19,18L31.199,25L19,32Z" style="fill:white;fill-rule:nonzero;"/>
                    </g>
                </g>
            </g>
        </g>
    </g>
</svg>
